<svg width="31" height="31" viewBox="0 0 31 31" fill="none" xmlns="http://www.w3.org/2000/svg">
<path d="M28.6936 0.339844H2.00415C1.09027 0.340393 0.349426 1.0816 0.349609 1.99585V28.6853C0.350159 29.5992 1.09137 30.34 2.00562 30.3398H16.375V18.7383H12.4785V14.1973H16.375V10.8554C16.375 6.97998 18.7409 4.87061 22.1979 4.87061C23.8538 4.87061 25.2767 4.99402 25.6914 5.04913V9.09961H23.3076C21.4267 9.09961 21.0625 9.99335 21.0625 11.3051V14.1973H25.5596L24.9736 18.7383H21.0625V30.3398H28.6936C29.608 30.34 30.3494 29.599 30.3496 28.6846C30.3496 28.6844 30.3496 28.6842 30.3496 28.6838V1.99438C30.3492 1.08051 29.6078 0.339661 28.6936 0.339844Z" fill="#1E1D1D"/>
</svg>
