<svg width="31" height="31" viewBox="0 0 31 31" fill="none" xmlns="http://www.w3.org/2000/svg">
<path d="M30.2657 9.15995C30.1954 7.56593 29.9376 6.47006 29.5684 5.52047C29.1875 4.5125 28.6014 3.61007 27.8336 2.85987C27.0834 2.09801 26.175 1.506 25.1787 1.13102C24.2236 0.761757 23.1335 0.503985 21.5394 0.433704C19.9335 0.357471 19.4237 0.339844 15.3506 0.339844C11.2776 0.339844 10.7677 0.357471 9.16776 0.427752C7.57374 0.498032 6.47787 0.756033 5.52851 1.12506C4.52031 1.506 3.61788 2.09205 2.86769 2.85987C2.10582 3.61007 1.51404 4.51845 1.13883 5.51474C0.769569 6.47006 0.511797 7.55998 0.441516 9.154C0.365284 10.7599 0.347656 11.2697 0.347656 15.3428C0.347656 19.4159 0.365284 19.9257 0.435564 21.5257C0.505845 23.1197 0.763846 24.2156 1.13311 25.1652C1.51404 26.1731 2.10582 27.0756 2.86769 27.8258C3.61788 28.5876 4.52626 29.1796 5.52256 29.5546C6.47787 29.9239 7.56779 30.1817 9.16204 30.2519C10.7618 30.3224 11.2718 30.3398 15.3449 30.3398C19.418 30.3398 19.9278 30.3224 21.5278 30.2519C23.1218 30.1817 24.2177 29.9239 25.167 29.5546C27.1832 28.7751 28.7772 27.1811 29.5567 25.1652C29.9257 24.2099 30.1837 23.1197 30.254 21.5257C30.3243 19.9257 30.3419 19.4159 30.3419 15.3428C30.3419 11.2697 30.336 10.7599 30.2657 9.15995ZM27.5641 21.4085C27.4996 22.8736 27.2535 23.6648 27.0484 24.1922C26.5443 25.4992 25.507 26.5364 24.2 27.0405C23.6726 27.2457 22.8757 27.4918 21.4163 27.5561C19.8339 27.6266 19.3594 27.644 15.3566 27.644C11.3538 27.644 10.8733 27.6266 9.29665 27.5561C7.83152 27.4918 7.04034 27.2457 6.5129 27.0405C5.86251 26.8002 5.27051 26.4192 4.78999 25.9211C4.29184 25.4346 3.91091 24.8486 3.67053 24.1982C3.46542 23.6707 3.21932 22.8736 3.15499 21.4144C3.08448 19.8321 3.06708 19.3573 3.06708 15.3545C3.06708 11.3517 3.08448 10.8712 3.15499 9.29479C3.21932 7.82966 3.46542 7.03848 3.67053 6.51104C3.91091 5.86042 4.29184 5.26865 4.79594 4.7879C5.28218 4.28975 5.86824 3.90882 6.51885 3.66867C7.0463 3.46356 7.84342 3.21746 9.3026 3.1529C10.8849 3.08262 11.3597 3.06499 15.3623 3.06499C19.371 3.06499 19.8456 3.08262 21.4222 3.1529C22.8874 3.21746 23.6785 3.46356 24.206 3.66867C24.8564 3.90882 25.4484 4.28975 25.9289 4.7879C26.427 5.27437 26.808 5.86042 27.0484 6.51104C27.2535 7.03848 27.4996 7.83538 27.5641 9.29479C27.6344 10.8771 27.652 11.3517 27.652 15.3545C27.652 19.3573 27.6344 19.8261 27.5641 21.4085Z" fill="#1E1D1D"/>
<path d="M15.3511 7.63672C11.0965 7.63672 7.64453 11.0885 7.64453 15.3433C7.64453 19.5982 11.0965 23.0499 15.3511 23.0499C19.606 23.0499 23.0577 19.5982 23.0577 15.3433C23.0577 11.0885 19.606 7.63672 15.3511 7.63672ZM15.3511 20.3424C12.591 20.3424 10.3521 18.1037 10.3521 15.3433C10.3521 12.5829 12.591 10.3442 15.3511 10.3442C18.1115 10.3442 20.3502 12.5829 20.3502 15.3433C20.3502 18.1037 18.1115 20.3424 15.3511 20.3424Z" fill="#1E1D1D"/>
<path d="M24.8563 7.3343C24.8563 8.32784 24.0507 9.13343 23.057 9.13343C22.0634 9.13343 21.2578 8.32784 21.2578 7.3343C21.2578 6.34052 22.0634 5.53516 23.057 5.53516C24.0507 5.53516 24.8563 6.34052 24.8563 7.3343Z" fill="#1E1D1D"/>
</svg>
