<svg width="33" height="31" viewBox="0 0 33 31" fill="none" xmlns="http://www.w3.org/2000/svg">
<path d="M3.93022 0.339844C1.62876 0.339844 0.124023 1.8511 0.124023 3.83743C0.124023 5.7799 1.58394 7.33426 3.84191 7.33426H3.88559C6.23207 7.33426 7.69236 5.7799 7.69236 3.83743C7.6485 1.8511 6.23207 0.339844 3.93022 0.339844Z" fill="#1E1D1D"/>
<path d="M0.521484 10.0977H7.24962V30.3395H0.521484V10.0977Z" fill="#1E1D1D"/>
<path d="M24.8269 9.62305C21.1973 9.62305 18.7635 13.0337 18.7635 13.0337V10.0981H12.0352V30.34H18.7631V19.0362C18.7631 18.431 18.807 17.8268 18.9847 17.3941C19.4711 16.1857 20.578 14.9338 22.4367 14.9338C24.8713 14.9338 25.8451 16.7901 25.8451 19.5112V30.34H32.5726V18.7337C32.5726 12.5162 29.2532 9.62305 24.8269 9.62305Z" fill="#1E1D1D"/>
</svg>
