<svg width="37" height="31" viewBox="0 0 37 31" fill="none" xmlns="http://www.w3.org/2000/svg">
<path d="M11.6481 30.3396C25.5784 30.3396 33.1963 18.7988 33.1963 8.7914C33.1963 8.46363 33.1895 8.1372 33.1748 7.81259C34.6535 6.74347 35.9386 5.40933 36.9526 3.89077C35.5957 4.49418 34.1352 4.89983 32.6035 5.08336C34.167 4.1454 35.3675 2.66228 35.9336 0.894266C34.4704 1.76179 32.8498 2.39207 31.1247 2.73248C29.7427 1.26042 27.7749 0.339844 25.5962 0.339844C21.4141 0.339844 18.0224 3.73139 18.0224 7.91214C18.0224 8.50674 18.0889 9.08464 18.2188 9.63906C11.9244 9.32235 6.34268 6.30892 2.60778 1.72635C1.95764 2.84536 1.58246 4.14563 1.58246 5.53304C1.58246 8.16023 2.91953 10.4802 4.95257 11.8369C3.71008 11.7987 2.54299 11.4576 1.52264 10.8899C1.52151 10.9217 1.52151 10.9527 1.52151 10.9865C1.52151 14.6544 4.13199 17.7168 7.59781 18.4107C6.96122 18.5839 6.29144 18.6771 5.60067 18.6771C5.11352 18.6771 4.63856 18.6292 4.17714 18.5405C5.14129 21.5497 7.93733 23.7394 11.2521 23.8008C8.65993 25.8325 5.39457 27.0427 1.84568 27.0427C1.23527 27.0427 0.631861 27.0077 0.0390625 26.9377C3.39088 29.0861 7.37094 30.3398 11.6483 30.3398" fill="#1E1D1D"/>
</svg>
