<svg width="44" height="31" viewBox="0 0 44 31" fill="none" xmlns="http://www.w3.org/2000/svg">
<path d="M42.6921 5.03413C42.1983 3.19852 40.7511 1.75153 38.9157 1.25726C35.5628 0.339844 22.1507 0.339844 22.1507 0.339844C22.1507 0.339844 8.7392 0.339844 5.38626 1.22247C3.58621 1.71622 2.10366 3.19878 1.60991 5.03413C0.727539 8.38681 0.727539 15.3398 0.727539 15.3398C0.727539 15.3398 0.727539 22.3279 1.60991 25.6456C2.10418 27.4809 3.55091 28.9279 5.38652 29.4222C8.77451 30.3398 22.1513 30.3398 22.1513 30.3398C22.1513 30.3398 35.5628 30.3398 38.9157 29.4572C40.7513 28.9632 42.1983 27.5162 42.6926 25.6809C43.5747 22.3279 43.5747 15.3751 43.5747 15.3751C43.5747 15.3751 43.61 8.38681 42.6921 5.03413ZM17.8806 21.7633V8.91639L29.0334 15.3398L17.8806 21.7633Z" fill="#1E1D1D"/>
</svg>
